<svg viewBox="0 0 96 96" xmlns="http://www.w3.org/2000/svg" xmlns:xlink="http://www.w3.org/1999/xlink" id="Icons_QuestionMark1_M" overflow="hidden"><style>
.MsftOfcThm_Accent5_Fill {
 fill:#5B9BD5; 
}
.MsftOfcThm_MainDark1_Stroke {
 stroke:#000000; 
}
</style>
<g id="Icons"><path d="M68.212 30.059C66.9529 18.8796 56.8696 10.8376 45.6902 12.0967 35.3745 13.2585 27.5825 21.992 27.6 32.373L29.6 32.373C29.6039 27.149 31.8282 22.173 35.718 18.686 39.6178 15.1651 44.8485 13.5005 50.066 14.12 60.1469 15.2776 67.3807 24.3881 66.2231 34.469 65.5114 40.6675 61.7026 46.0811 56.109 48.845 50.4661 51.7445 46.9331 57.5709 46.971 63.915L47 69.015 49 68.987 48.971 63.916C48.9297 58.3302 52.0342 53.1961 57 50.638 64.7311 46.8583 69.228 38.6044 68.212 30.059Z" class="MsftOfcThm_Accent5_Fill MsftOfcThm_MainDark1_Stroke" stroke="#000000" stroke-width="1.33333" fill="#5B9BD5"/><path d="M47.919 77C47.1452 76.9737 46.3945 77.2665 45.843 77.81 45.2897 78.3574 44.994 79.1134 45.029 79.891 45.0066 80.6757 45.3078 81.435 45.862 81.991 46.3981 82.5493 47.1453 82.8548 47.919 82.832 48.7164 82.8502 49.4861 82.5391 50.047 81.972 50.6172 81.4318 50.9319 80.6753 50.913 79.89 50.9448 79.111 50.6351 78.3569 50.065 77.825 49.488 77.2754 48.7156 76.9784 47.919 77Z" class="MsftOfcThm_Accent5_Fill MsftOfcThm_MainDark1_Stroke" stroke="#000000" stroke-width="1.33333" fill="#5B9BD5"/></g></svg>