<svg viewBox="0 0 96 96" xmlns="http://www.w3.org/2000/svg" xmlns:xlink="http://www.w3.org/1999/xlink" id="Icons_QuestionMark_LTR_M" overflow="hidden"><style>
.MsftOfcThm_Accent5_Fill {
 fill:#5B9BD5; 
}
.MsftOfcThm_MainDark1_Stroke {
 stroke:#000000; 
}
</style>
<g id="Icons"><path d="M48.026 13C36.6726 13.0132 27.4722 22.2136 27.459 33.567L29.459 33.567C29.4596 23.3127 37.7727 15.0004 48.027 15.001 58.2813 15.0016 66.5936 23.3147 66.593 33.569 66.5925 43.8229 58.2799 52.135 48.026 52.135L47.026 52.135 47.026 69 49.026 69 49.026 54.11C60.3716 53.5614 69.1243 43.9193 68.5757 32.5737 68.0457 21.6112 59.0013 12.9964 48.026 13Z" class="MsftOfcThm_Accent5_Fill MsftOfcThm_MainDark1_Stroke" stroke="#000000" stroke-width="1.33333" fill="#5B9BD5"/><path d="M47.974 77C47.2002 76.9737 46.4495 77.2665 45.898 77.81 45.3447 78.3574 45.049 79.1134 45.084 79.891 45.0616 80.6757 45.3628 81.435 45.917 81.991 46.4531 82.5493 47.2003 82.8548 47.974 82.832 48.7714 82.8502 49.5411 82.5391 50.102 81.972 50.6722 81.4318 50.9869 80.6753 50.968 79.89 50.9998 79.111 50.6901 78.3569 50.12 77.825 49.543 77.2754 48.7706 76.9784 47.974 77Z" class="MsftOfcThm_Accent5_Fill MsftOfcThm_MainDark1_Stroke" stroke="#000000" stroke-width="1.33333" fill="#5B9BD5"/></g></svg>