<svg viewBox="0 0 96 96" xmlns="http://www.w3.org/2000/svg" xmlns:xlink="http://www.w3.org/1999/xlink" id="Icons_BadgeQuestionMark_M" overflow="hidden"><style>
.MsftOfcThm_Accent5_Fill {
 fill:#5B9BD5; 
}
.MsftOfcThm_MainDark1_Stroke {
 stroke:#000000; 
}
</style>
<g id="Icons"><path d="M47.979 10C27.0038 10 10 27.0038 10 47.979 10 68.9542 27.0038 85.958 47.979 85.958 68.9542 85.958 85.958 68.9542 85.958 47.979 85.9674 27.0132 68.9788 10.0094 48.013 10 48.0017 10 47.9903 10 47.979 10ZM47.979 83.958C28.1083 83.958 12 67.8497 12 47.979 12 28.1083 28.1083 12 47.979 12 67.8497 12 83.958 28.1083 83.958 47.979 83.9354 67.8403 67.8403 83.9354 47.979 83.958Z" class="MsftOfcThm_Accent5_Fill MsftOfcThm_MainDark1_Stroke" stroke="#000000" stroke-width="1.33333" fill="#5B9BD5"/><path d="M49.345 27.079C42.7414 26.3273 36.7789 31.0712 36.0272 37.6748 35.9759 38.1257 35.9501 38.5792 35.95 39.033L37.95 39.033C37.9522 33.4936 42.4446 29.0048 47.984 29.007 53.5235 29.0093 58.0122 33.5017 58.01 39.0411 58.0086 42.4915 56.2337 45.6991 53.311 47.533 49.4115 49.9087 47.0166 54.131 46.979 58.697L48.979 58.697C49.0205 54.819 51.0627 51.2376 54.379 49.227 60.0072 45.6952 61.7066 38.2696 58.1748 32.6414 56.2307 29.5434 52.9829 27.4979 49.349 27.083Z" class="MsftOfcThm_Accent5_Fill MsftOfcThm_MainDark1_Stroke" stroke="#000000" stroke-width="1.33333" fill="#5B9BD5"/><circle cx="48" cy="67" r="2" class="MsftOfcThm_Accent5_Fill MsftOfcThm_MainDark1_Stroke" stroke="#000000" stroke-width="1.33333" fill="#5B9BD5"/></g></svg>